# xmcd
#
# Track frame offsets: 
#        150
#        25894
#        47129
#        66822
#        97984
#        120906
#        139580
#        157982
#        179036
#
# Disc length: 2721 seconds
#
# Revision: 1
# Processed by: cddbd v1.5.2PL0 Copyright (c) Steve Scherf et al.
# Submitted via: ExactAudioCopy v0.95b3
#
DISCID=700a9f09
DTITLE=Harrison, Gavin and 05Ric - Drop
DYEAR=2007
DGENRE=Jazz
TTITLE0=Unsettled
TTITLE1=Sailing
TTITLE2=Life
TTITLE3=Sometime
TTITLE4=For Lack Of
TTITLE5=Clock
TTITLE6=Okay
TTITLE7=Where Are You Going?
TTITLE8=Centered 
EXTD=YEAR: 2007
EXTT0=
EXTT1=
EXTT2=
EXTT3=
EXTT4=
EXTT5=
EXTT6=
EXTT7=
EXTT8=
PLAYORDER=
